<mxfile host="app.diagrams.net" agent="Mozilla/5.0 (Windows NT 10.0; Win64; x64) AppleWebKit/537.36 (KHTML, like Gecko) Chrome/133.0.0.0 Safari/537.36 OPR/118.0.0.0" version="24.7.6">
  <diagram id="C5RBs43oDa-KdzZeNtuy" name="Page-1">
    <mxGraphModel dx="954" dy="413" grid="1" gridSize="10" guides="1" tooltips="1" connect="1" arrows="1" fold="1" page="1" pageScale="1" pageWidth="827" pageHeight="1169" math="0" shadow="0">
      <root>
        <mxCell id="WIyWlLk6GJQsqaUBKTNV-0" />
        <mxCell id="WIyWlLk6GJQsqaUBKTNV-1" parent="WIyWlLk6GJQsqaUBKTNV-0" />
        <mxCell id="zkfFHV4jXpPFQw0GAbJ--0" value="Grafo" style="swimlane;fontStyle=2;align=center;verticalAlign=top;childLayout=stackLayout;horizontal=1;startSize=26;horizontalStack=0;resizeParent=1;resizeLast=0;collapsible=1;marginBottom=0;rounded=0;shadow=0;strokeWidth=1;fillColor=#e1d5e7;strokeColor=#9673a6;" parent="WIyWlLk6GJQsqaUBKTNV-1" vertex="1">
          <mxGeometry x="104" y="230" width="310" height="196" as="geometry">
            <mxRectangle x="230" y="140" width="160" height="26" as="alternateBounds" />
          </mxGeometry>
        </mxCell>
        <mxCell id="rd5trp3i2Hj3wEHaBOcg-22" value="&lt;div style=&quot;text-align: justify;&quot;&gt;&lt;span style=&quot;background-color: initial;&quot;&gt;&lt;font color=&quot;#000033&quot;&gt;&lt;br&gt;&lt;/font&gt;&lt;/span&gt;&lt;/div&gt;&lt;div style=&quot;text-align: justify;&quot;&gt;&lt;span style=&quot;background-color: initial;&quot;&gt;&lt;font color=&quot;#000033&quot;&gt;- matriz : int[][]&lt;/font&gt;&lt;/span&gt;&lt;/div&gt;&lt;div style=&quot;text-align: justify;&quot;&gt;&lt;font color=&quot;#000033&quot;&gt;- n : int&lt;/font&gt;&lt;/div&gt;" style="text;html=1;align=left;verticalAlign=middle;resizable=0;points=[];autosize=1;strokeColor=none;fillColor=none;" vertex="1" parent="zkfFHV4jXpPFQw0GAbJ--0">
          <mxGeometry y="26" width="310" height="60" as="geometry" />
        </mxCell>
        <mxCell id="zkfFHV4jXpPFQw0GAbJ--4" value="" style="line;html=1;strokeWidth=1;align=left;verticalAlign=middle;spacingTop=-1;spacingLeft=3;spacingRight=3;rotatable=0;labelPosition=right;points=[];portConstraint=eastwest;" parent="zkfFHV4jXpPFQw0GAbJ--0" vertex="1">
          <mxGeometry y="86" width="310" height="30" as="geometry" />
        </mxCell>
        <mxCell id="rd5trp3i2Hj3wEHaBOcg-19" value="&lt;font color=&quot;#000033&quot;&gt;&lt;span style=&quot;&quot;&gt;+ Grafo(n : int)&lt;/span&gt;&lt;br style=&quot;padding: 0px; margin: 0px;&quot;&gt;&lt;span style=&quot;&quot;&gt;+ NewArista(origen : int, destino : int, peso : int) : void&lt;/span&gt;&lt;br style=&quot;padding: 0px; margin: 0px;&quot;&gt;&lt;span style=&quot;&quot;&gt;+ NewMatriz(nombres : String[]) : String&lt;/span&gt;&lt;br style=&quot;padding: 0px; margin: 0px;&quot;&gt;&lt;span style=&quot;&quot;&gt;+ CentroGrafo(nombres : String[]) : String&lt;/span&gt;&lt;/font&gt;" style="text;html=1;align=left;verticalAlign=middle;resizable=0;points=[];autosize=1;strokeColor=none;fillColor=none;" vertex="1" parent="zkfFHV4jXpPFQw0GAbJ--0">
          <mxGeometry y="116" width="310" height="70" as="geometry" />
        </mxCell>
        <mxCell id="rd5trp3i2Hj3wEHaBOcg-2" value="Estaciones" style="swimlane;fontStyle=2;align=center;verticalAlign=top;childLayout=stackLayout;horizontal=1;startSize=26;horizontalStack=0;resizeParent=1;resizeLast=0;collapsible=1;marginBottom=0;rounded=0;shadow=0;strokeWidth=1;fillColor=#e1d5e7;strokeColor=#000033;" vertex="1" parent="WIyWlLk6GJQsqaUBKTNV-1">
          <mxGeometry x="274" y="40" width="270" height="60" as="geometry">
            <mxRectangle x="230" y="140" width="160" height="26" as="alternateBounds" />
          </mxGeometry>
        </mxCell>
        <mxCell id="rd5trp3i2Hj3wEHaBOcg-26" value="&lt;span style=&quot;&quot;&gt;&lt;font color=&quot;#000033&quot;&gt;+ main(args : String[]) : void&lt;/font&gt;&lt;/span&gt;" style="text;html=1;align=left;verticalAlign=middle;resizable=0;points=[];autosize=1;strokeColor=none;fillColor=none;" vertex="1" parent="rd5trp3i2Hj3wEHaBOcg-2">
          <mxGeometry y="26" width="270" height="30" as="geometry" />
        </mxCell>
        <mxCell id="rd5trp3i2Hj3wEHaBOcg-7" value="FloydWarshall" style="swimlane;fontStyle=2;align=center;verticalAlign=top;childLayout=stackLayout;horizontal=1;startSize=26;horizontalStack=0;resizeParent=1;resizeLast=0;collapsible=1;marginBottom=0;rounded=0;shadow=0;strokeWidth=1;fillColor=#e1d5e7;strokeColor=#9673a6;" vertex="1" parent="WIyWlLk6GJQsqaUBKTNV-1">
          <mxGeometry x="454" y="230" width="270" height="60" as="geometry">
            <mxRectangle x="230" y="140" width="160" height="26" as="alternateBounds" />
          </mxGeometry>
        </mxCell>
        <mxCell id="rd5trp3i2Hj3wEHaBOcg-25" value="&lt;span style=&quot;text-wrap-mode: nowrap;&quot;&gt;+ floyd(grafo : Grafo) : void&lt;/span&gt;" style="text;whiteSpace=wrap;html=1;" vertex="1" parent="rd5trp3i2Hj3wEHaBOcg-7">
          <mxGeometry y="26" width="270" height="34" as="geometry" />
        </mxCell>
        <mxCell id="rd5trp3i2Hj3wEHaBOcg-14" value="" style="endArrow=open;endSize=12;dashed=1;html=1;rounded=0;exitX=0.5;exitY=1;exitDx=0;exitDy=0;entryX=0.5;entryY=0;entryDx=0;entryDy=0;" edge="1" parent="WIyWlLk6GJQsqaUBKTNV-1" source="rd5trp3i2Hj3wEHaBOcg-2" target="zkfFHV4jXpPFQw0GAbJ--0">
          <mxGeometry width="160" relative="1" as="geometry">
            <mxPoint x="534" y="220" as="sourcePoint" />
            <mxPoint x="409" y="170" as="targetPoint" />
            <Array as="points" />
          </mxGeometry>
        </mxCell>
        <mxCell id="rd5trp3i2Hj3wEHaBOcg-16" value="Use" style="edgeLabel;html=1;align=center;verticalAlign=middle;resizable=0;points=[];" vertex="1" connectable="0" parent="rd5trp3i2Hj3wEHaBOcg-14">
          <mxGeometry x="0.1071" y="-3" relative="1" as="geometry">
            <mxPoint as="offset" />
          </mxGeometry>
        </mxCell>
        <mxCell id="rd5trp3i2Hj3wEHaBOcg-15" value="" style="endArrow=open;endSize=12;dashed=1;html=1;rounded=0;entryX=0.476;entryY=-0.004;entryDx=0;entryDy=0;entryPerimeter=0;" edge="1" parent="WIyWlLk6GJQsqaUBKTNV-1" target="rd5trp3i2Hj3wEHaBOcg-7">
          <mxGeometry width="160" relative="1" as="geometry">
            <mxPoint x="414" y="100" as="sourcePoint" />
            <mxPoint x="434" y="180" as="targetPoint" />
            <Array as="points" />
          </mxGeometry>
        </mxCell>
        <mxCell id="rd5trp3i2Hj3wEHaBOcg-17" value="Use" style="edgeLabel;html=1;align=center;verticalAlign=middle;resizable=0;points=[];" vertex="1" connectable="0" parent="rd5trp3i2Hj3wEHaBOcg-15">
          <mxGeometry x="0.1261" y="-2" relative="1" as="geometry">
            <mxPoint as="offset" />
          </mxGeometry>
        </mxCell>
        <mxCell id="rd5trp3i2Hj3wEHaBOcg-24" value="&lt;span style=&quot;color: rgba(0, 0, 0, 0); font-family: monospace; font-size: 0px; text-align: start;&quot;&gt;%3CmxGraphModel%3E%3Croot%3E%3CmxCell%20id%3D%220%22%2F%3E%3CmxCell%20id%3D%221%22%20parent%3D%220%22%2F%3E%3CmxCell%20id%3D%222%22%20value%3D%22%26lt%3Bspan%20style%3D%26quot%3B%26quot%3B%26gt%3B%2B%20Grafo(n%20%3A%20int)%26lt%3B%2Fspan%26gt%3B%26lt%3Bbr%20style%3D%26quot%3Bpadding%3A%200px%3B%20margin%3A%200px%3B%26quot%3B%26gt%3B%26lt%3Bspan%20style%3D%26quot%3B%26quot%3B%26gt%3B%2B%20NewArista(origen%20%3A%20int%2C%20destino%20%3A%20int%2C%20peso%20%3A%20int)%20%3A%20void%26lt%3B%2Fspan%26gt%3B%26lt%3Bbr%20style%3D%26quot%3Bpadding%3A%200px%3B%20margin%3A%200px%3B%26quot%3B%26gt%3B%26lt%3Bspan%20style%3D%26quot%3B%26quot%3B%26gt%3B%2B%20NewMatriz(nombres%20%3A%20String%5B%5D)%20%3A%20String%26lt%3B%2Fspan%26gt%3B%26lt%3Bbr%20style%3D%26quot%3Bpadding%3A%200px%3B%20margin%3A%200px%3B%26quot%3B%26gt%3B%26lt%3Bspan%20style%3D%26quot%3B%26quot%3B%26gt%3B%2B%20CentroGrafo(nombres%20%3A%20String%5B%5D)%20%3A%20String%26lt%3B%2Fspan%26gt%3B%22%20style%3D%22text%3Bhtml%3D1%3Balign%3Dleft%3BverticalAlign%3Dmiddle%3Bresizable%3D0%3Bpoints%3D%5B%5D%3Bautosize%3D1%3BstrokeColor%3Dnone%3BfillColor%3Dnone%3B%22%20vertex%3D%221%22%20parent%3D%221%22%3E%3CmxGeometry%20x%3D%22104%22%20y%3D%22346%22%20width%3D%22300%22%20height%3D%2270%22%20as%3D%22geometry%22%2F%3E%3C%2FmxCell%3E%3C%2Froot%3E%3C%2FmxGraphModel%3E&lt;/span&gt;&lt;span style=&quot;color: rgba(0, 0, 0, 0); font-family: monospace; font-size: 0px; text-align: start;&quot;&gt;%3CmxGraphModel%3E%3Croot%3E%3CmxCell%20id%3D%220%22%2F%3E%3CmxCell%20id%3D%221%22%20parent%3D%220%22%2F%3E%3CmxCell%20id%3D%222%22%20value%3D%22%26lt%3Bspan%20style%3D%26quot%3B%26quot%3B%26gt%3B%2B%20Grafo(n%20%3A%20int)%26lt%3B%2Fspan%26gt%3B%26lt%3Bbr%20style%3D%26quot%3Bpadding%3A%200px%3B%20margin%3A%200px%3B%26quot%3B%26gt%3B%26lt%3Bspan%20style%3D%26quot%3B%26quot%3B%26gt%3B%2B%20NewArista(origen%20%3A%20int%2C%20destino%20%3A%20int%2C%20peso%20%3A%20int)%20%3A%20void%26lt%3B%2Fspan%26gt%3B%26lt%3Bbr%20style%3D%26quot%3Bpadding%3A%200px%3B%20margin%3A%200px%3B%26quot%3B%26gt%3B%26lt%3Bspan%20style%3D%26quot%3B%26quot%3B%26gt%3B%2B%20NewMatriz(nombres%20%3A%20String%5B%5D)%20%3A%20String%26lt%3B%2Fspan%26gt%3B%26lt%3Bbr%20style%3D%26quot%3Bpadding%3A%200px%3B%20margin%3A%200px%3B%26quot%3B%26gt%3B%26lt%3Bspan%20style%3D%26quot%3B%26quot%3B%26gt%3B%2B%20CentroGrafo(nombres%20%3A%20String%5B%5D)%20%3A%20String%26lt%3B%2Fspan%26gt%3B%22%20style%3D%22text%3Bhtml%3D1%3Balign%3Dleft%3BverticalAlign%3Dmiddle%3Bresizable%3D0%3Bpoints%3D%5B%5D%3Bautosize%3D1%3BstrokeColor%3Dnone%3BfillColor%3Dnone%3B%22%20vertex%3D%221%22%20parent%3D%221%22%3E%3CmxGeometry%20x%3D%22104%22%20y%3D%22346%22%20width%3D%22300%22%20height%3D%2270%22%20as%3D%22geometry%22%2F%3E%3C%2FmxCell%3E%3C%2Froot%3E%3C%2FmxGraphModel%3E&lt;/span&gt;&lt;span style=&quot;color: rgba(0, 0, 0, 0); font-family: monospace; font-size: 0px; text-align: start;&quot;&gt;%3CmxGraphModel%3E%3Croot%3E%3CmxCell%20id%3D%220%22%2F%3E%3CmxCell%20id%3D%221%22%20parent%3D%220%22%2F%3E%3CmxCell%20id%3D%222%22%20value%3D%22%26lt%3Bspan%20style%3D%26quot%3B%26quot%3B%26gt%3B%2B%20Grafo(n%20%3A%20int)%26lt%3B%2Fspan%26gt%3B%26lt%3Bbr%20style%3D%26quot%3Bpadding%3A%200px%3B%20margin%3A%200px%3B%26quot%3B%26gt%3B%26lt%3Bspan%20style%3D%26quot%3B%26quot%3B%26gt%3B%2B%20NewArista(origen%20%3A%20int%2C%20destino%20%3A%20int%2C%20peso%20%3A%20int)%20%3A%20void%26lt%3B%2Fspan%26gt%3B%26lt%3Bbr%20style%3D%26quot%3Bpadding%3A%200px%3B%20margin%3A%200px%3B%26quot%3B%26gt%3B%26lt%3Bspan%20style%3D%26quot%3B%26quot%3B%26gt%3B%2B%20NewMatriz(nombres%20%3A%20String%5B%5D)%20%3A%20String%26lt%3B%2Fspan%26gt%3B%26lt%3Bbr%20style%3D%26quot%3Bpadding%3A%200px%3B%20margin%3A%200px%3B%26quot%3B%26gt%3B%26lt%3Bspan%20style%3D%26quot%3B%26quot%3B%26gt%3B%2B%20CentroGrafo(nombres%20%3A%20String%5B%5D)%20%3A%20String%26lt%3B%2Fspan%26gt%3B%22%20style%3D%22text%3Bhtml%3D1%3Balign%3Dleft%3BverticalAlign%3Dmiddle%3Bresizable%3D0%3Bpoints%3D%5B%5D%3Bautosize%3D1%3BstrokeColor%3Dnone%3BfillColor%3Dnone%3B%22%20vertex%3D%221%22%20parent%3D%221%22%3E%3CmxGeometry%20x%3D%22104%22%20y%3D%22346%22%20width%3D%22300%22%20height%3D%2270%22%20as%3D%22geometry%22%2F%3E%3C%2FmxCell%3E%3C%2Froot%3E%3C%2FmxGraphModel%3E&lt;/span&gt;&lt;span style=&quot;color: rgba(0, 0, 0, 0); font-family: monospace; font-size: 0px; text-align: start;&quot;&gt;%3CmxGraphModel%3E%3Croot%3E%3CmxCell%20id%3D%220%22%2F%3E%3CmxCell%20id%3D%221%22%20parent%3D%220%22%2F%3E%3CmxCell%20id%3D%222%22%20value%3D%22%26lt%3Bspan%20style%3D%26quot%3B%26quot%3B%26gt%3B%2B%20Grafo(n%20%3A%20int)%26lt%3B%2Fspan%26gt%3B%26lt%3Bbr%20style%3D%26quot%3Bpadding%3A%200px%3B%20margin%3A%200px%3B%26quot%3B%26gt%3B%26lt%3Bspan%20style%3D%26quot%3B%26quot%3B%26gt%3B%2B%20NewArista(origen%20%3A%20int%2C%20destino%20%3A%20int%2C%20peso%20%3A%20int)%20%3A%20void%26lt%3B%2Fspan%26gt%3B%26lt%3Bbr%20style%3D%26quot%3Bpadding%3A%200px%3B%20margin%3A%200px%3B%26quot%3B%26gt%3B%26lt%3Bspan%20style%3D%26quot%3B%26quot%3B%26gt%3B%2B%20NewMatriz(nombres%20%3A%20String%5B%5D)%20%3A%20String%26lt%3B%2Fspan%26gt%3B%26lt%3Bbr%20style%3D%26quot%3Bpadding%3A%200px%3B%20margin%3A%200px%3B%26quot%3B%26gt%3B%26lt%3Bspan%20style%3D%26quot%3B%26quot%3B%26gt%3B%2B%20CentroGrafo(nombres%20%3A%20String%5B%5D)%20%3A%20String%26lt%3B%2Fspan%26gt%3B%22%20style%3D%22text%3Bhtml%3D1%3Balign%3Dleft%3BverticalAlign%3Dmiddle%3Bresizable%3D0%3Bpoints%3D%5B%5D%3Bautosize%3D1%3BstrokeColor%3Dnone%3BfillColor%3Dnone%3B%22%20vertex%3D%221%22%20parent%3D%221%22%3E%3CmxGeometry%20x%3D%22104%22%20y%3D%22346%22%20width%3D%22300%22%20height%3D%2270%22%20as%3D%22geometry%22%2F%3E%3C%2FmxCell%3E%3C%2Froot%3E%3C%2FmxGraphModel%3E&lt;/span&gt;&lt;span style=&quot;color: rgba(0, 0, 0, 0); font-family: monospace; font-size: 0px; text-align: start;&quot;&gt;%3CmxGraphModel%3E%3Croot%3E%3CmxCell%20id%3D%220%22%2F%3E%3CmxCell%20id%3D%221%22%20parent%3D%220%22%2F%3E%3CmxCell%20id%3D%222%22%20value%3D%22%26lt%3Bspan%20style%3D%26quot%3B%26quot%3B%26gt%3B%2B%20Grafo(n%20%3A%20int)%26lt%3B%2Fspan%26gt%3B%26lt%3Bbr%20style%3D%26quot%3Bpadding%3A%200px%3B%20margin%3A%200px%3B%26quot%3B%26gt%3B%26lt%3Bspan%20style%3D%26quot%3B%26quot%3B%26gt%3B%2B%20NewArista(origen%20%3A%20int%2C%20destino%20%3A%20int%2C%20peso%20%3A%20int)%20%3A%20void%26lt%3B%2Fspan%26gt%3B%26lt%3Bbr%20style%3D%26quot%3Bpadding%3A%200px%3B%20margin%3A%200px%3B%26quot%3B%26gt%3B%26lt%3Bspan%20style%3D%26quot%3B%26quot%3B%26gt%3B%2B%20NewMatriz(nombres%20%3A%20String%5B%5D)%20%3A%20String%26lt%3B%2Fspan%26gt%3B%26lt%3Bbr%20style%3D%26quot%3Bpadding%3A%200px%3B%20margin%3A%200px%3B%26quot%3B%26gt%3B%26lt%3Bspan%20style%3D%26quot%3B%26quot%3B%26gt%3B%2B%20CentroGrafo(nombres%20%3A%20String%5B%5D)%20%3A%20String%26lt%3B%2Fspan%26gt%3B%22%20style%3D%22text%3Bhtml%3D1%3Balign%3Dleft%3BverticalAlign%3Dmiddle%3Bresizable%3D0%3Bpoints%3D%5B%5D%3Bautosize%3D1%3BstrokeColor%3Dnone%3BfillColor%3Dnone%3B%22%20vertex%3D%221%22%20parent%3D%221%22%3E%3CmxGeometry%20x%3D%22104%22%20y%3D%22346%22%20width%3D%22300%22%20height%3D%2270%22%20as%3D%22geometry%22%2F%3E%3C%2FmxCell%3E%3C%2Froot%3E%3C%2FmxGraphModel%3E&lt;/span&gt;&lt;span style=&quot;color: rgba(0, 0, 0, 0); font-family: monospace; font-size: 0px; text-align: start;&quot;&gt;%3CmxGraphModel%3E%3Croot%3E%3CmxCell%20id%3D%220%22%2F%3E%3CmxCell%20id%3D%221%22%20parent%3D%220%22%2F%3E%3CmxCell%20id%3D%222%22%20value%3D%22%26lt%3Bspan%20style%3D%26quot%3B%26quot%3B%26gt%3B%2B%20Grafo(n%20%3A%20int)%26lt%3B%2Fspan%26gt%3B%26lt%3Bbr%20style%3D%26quot%3Bpadding%3A%200px%3B%20margin%3A%200px%3B%26quot%3B%26gt%3B%26lt%3Bspan%20style%3D%26quot%3B%26quot%3B%26gt%3B%2B%20NewArista(origen%20%3A%20int%2C%20destino%20%3A%20int%2C%20peso%20%3A%20int)%20%3A%20void%26lt%3B%2Fspan%26gt%3B%26lt%3Bbr%20style%3D%26quot%3Bpadding%3A%200px%3B%20margin%3A%200px%3B%26quot%3B%26gt%3B%26lt%3Bspan%20style%3D%26quot%3B%26quot%3B%26gt%3B%2B%20NewMatriz(nombres%20%3A%20String%5B%5D)%20%3A%20String%26lt%3B%2Fspan%26gt%3B%26lt%3Bbr%20style%3D%26quot%3Bpadding%3A%200px%3B%20margin%3A%200px%3B%26quot%3B%26gt%3B%26lt%3Bspan%20style%3D%26quot%3B%26quot%3B%26gt%3B%2B%20CentroGrafo(nombres%20%3A%20String%5B%5D)%20%3A%20String%26lt%3B%2Fspan%26gt%3B%22%20style%3D%22text%3Bhtml%3D1%3Balign%3Dleft%3BverticalAlign%3Dmiddle%3Bresizable%3D0%3Bpoints%3D%5B%5D%3Bautosize%3D1%3BstrokeColor%3Dnone%3BfillColor%3Dnone%3B%22%20vertex%3D%221%22%20parent%3D%221%22%3E%3CmxGeometry%20x%3D%22104%22%20y%3D%22346%22%20width%3D%22300%22%20height%3D%2270%22%20as%3D%22geometry%22%2F%3E%3C%2FmxCell%3E%3C%2Froot%3E%3C%2FmxGraphModel%3E&lt;/span&gt;&lt;span style=&quot;color: rgba(0, 0, 0, 0); font-family: monospace; font-size: 0px; text-align: start;&quot;&gt;%3CmxGraphModel%3E%3Croot%3E%3CmxCell%20id%3D%220%22%2F%3E%3CmxCell%20id%3D%221%22%20parent%3D%220%22%2F%3E%3CmxCell%20id%3D%222%22%20value%3D%22%26lt%3Bspan%20style%3D%26quot%3B%26quot%3B%26gt%3B%2B%20Grafo(n%20%3A%20int)%26lt%3B%2Fspan%26gt%3B%26lt%3Bbr%20style%3D%26quot%3Bpadding%3A%200px%3B%20margin%3A%200px%3B%26quot%3B%26gt%3B%26lt%3Bspan%20style%3D%26quot%3B%26quot%3B%26gt%3B%2B%20NewArista(origen%20%3A%20int%2C%20destino%20%3A%20int%2C%20peso%20%3A%20int)%20%3A%20void%26lt%3B%2Fspan%26gt%3B%26lt%3Bbr%20style%3D%26quot%3Bpadding%3A%200px%3B%20margin%3A%200px%3B%26quot%3B%26gt%3B%26lt%3Bspan%20style%3D%26quot%3B%26quot%3B%26gt%3B%2B%20NewMatriz(nombres%20%3A%20String%5B%5D)%20%3A%20String%26lt%3B%2Fspan%26gt%3B%26lt%3Bbr%20style%3D%26quot%3Bpadding%3A%200px%3B%20margin%3A%200px%3B%26quot%3B%26gt%3B%26lt%3Bspan%20style%3D%26quot%3B%26quot%3B%26gt%3B%2B%20CentroGrafo(nombres%20%3A%20String%5B%5D)%20%3A%20String%26lt%3B%2Fspan%26gt%3B%22%20style%3D%22text%3Bhtml%3D1%3Balign%3Dleft%3BverticalAlign%3Dmiddle%3Bresizable%3D0%3Bpoints%3D%5B%5D%3Bautosize%3D1%3BstrokeColor%3Dnone%3BfillColor%3Dnone%3B%22%20vertex%3D%221%22%20parent%3D%221%22%3E%3CmxGeometry%20x%3D%22104%22%20y%3D%22346%22%20width%3D%22300%22%20height%3D%2270%22%20as%3D%22geometry%22%2F%3E%3C%2FmxCell%3E%3C%2Froot%3E%3C%2FmxGraphModel%3E&lt;/span&gt;" style="text;html=1;align=center;verticalAlign=middle;resizable=0;points=[];autosize=1;strokeColor=none;fillColor=none;" vertex="1" parent="WIyWlLk6GJQsqaUBKTNV-1">
          <mxGeometry x="550" y="258" width="20" height="30" as="geometry" />
        </mxCell>
      </root>
    </mxGraphModel>
  </diagram>
</mxfile>
